<?xml version="1.0" standalone="no"?>
<!DOCTYPE svg PUBLIC "-//W3C//DTD SVG 20010904//EN"
 "http://www.w3.org/TR/2001/REC-SVG-20010904/DTD/svg10.dtd">
<svg version="1.0" xmlns="http://www.w3.org/2000/svg"
 width="275.000000pt" height="183.000000pt" viewBox="0 0 275.000000 183.000000"
 preserveAspectRatio="xMidYMid meet">
<g transform="translate(0.000000,183.000000) scale(0.100000,-0.100000)"
fill="#000000" stroke="none">
<path d="M1320 1340 c-9 -6 -10 -10 -3 -10 6 0 15 5 18 10 8 12 4 12 -15 0z"/>
<path d="M1214 1318 l-19 -23 23 19 c21 18 27 26 19 26 -2 0 -12 -10 -23 -22z"/>
<path d="M1345 1331 c-3 -5 -2 -12 3 -15 5 -3 9 1 9 9 0 17 -3 19 -12 6z"/>
<path d="M1248 1287 c-14 -7 -65 -49 -111 -94 l-85 -81 29 -21 c16 -12 29 -25
29 -29 0 -5 -25 -7 -56 -5 -40 2 -60 -2 -72 -13 -13 -14 -8 -23 59 -90 66 -67
75 -73 86 -57 7 9 13 44 13 77 l1 61 30 -33 c28 -31 32 -32 43 -17 11 15 16
13 50 -21 l37 -37 -153 -154 -152 -153 44 -45 45 -45 236 236 c197 197 240
235 257 230 33 -11 95 11 126 43 22 23 30 43 34 80 8 88 -1 92 -66 28 l-58
-57 -29 30 -29 30 58 59 59 60 -37 7 c-51 9 -105 -9 -141 -46 -26 -27 -30 -39
-30 -88 0 -53 -2 -59 -38 -91 l-38 -34 -36 36 c-32 31 -35 38 -23 53 13 14 11
19 -14 41 l-29 24 42 43 c22 23 41 45 41 49 0 9 -63 37 -82 37 -7 -1 -25 -6
-40 -13z m42 -20 c0 5 8 9 19 9 10 0 18 -5 17 -11 -3 -17 -17 -35 -27 -35 -6
0 -7 6 -3 13 4 6 3 8 -1 4 -14 -12 -15 -38 -2 -30 7 3 4 -3 -7 -15 -12 -14
-16 -27 -11 -39 5 -10 7 -21 7 -25 -1 -5 4 -8 12 -8 8 0 18 -5 22 -12 4 -7 3
-8 -4 -4 -7 4 -12 2 -12 -4 0 -6 -3 -9 -7 -7 -5 3 -8 -5 -8 -18 0 -18 3 -21
13 -13 6 6 12 6 12 1 0 -5 -6 -15 -12 -22 -7 -7 -8 -12 -3 -11 22 5 34 -1 65
-30 l31 -29 30 30 c16 16 33 27 38 24 5 -3 13 0 17 6 5 8 3 9 -6 4 -8 -5 -4 6
9 23 12 18 19 32 14 32 -14 0 -8 67 8 86 12 15 12 17 0 9 -10 -6 -12 -4 -7 4
5 7 15 10 23 6 14 -5 14 -3 2 12 -12 15 -12 16 3 11 9 -4 18 -1 21 6 6 15 55
27 62 15 3 -4 -4 -10 -15 -14 -11 -4 -18 -10 -15 -15 3 -5 -5 -18 -17 -29 -12
-12 -18 -21 -12 -21 5 0 2 -5 -6 -10 -12 -7 -5 -18 34 -56 44 -42 51 -45 62
-30 11 15 13 15 28 1 9 -9 16 -12 16 -6 0 5 -5 13 -10 16 -11 7 25 65 39 65
13 0 6 -61 -8 -69 -7 -5 -12 -12 -10 -17 1 -5 -16 -18 -37 -30 -30 -16 -46
-19 -69 -12 -16 4 -31 8 -32 8 -1 0 -41 -38 -88 -85 -48 -47 -92 -82 -98 -78
-6 3 -7 1 -3 -5 9 -14 -142 -164 -157 -155 -5 3 -7 1 -4 -4 8 -13 -17 -36 -28
-25 -5 4 -5 1 -1 -6 9 -15 -20 -46 -34 -37 -6 3 -7 -1 -4 -10 5 -11 0 -18 -15
-22 -11 -3 -19 -9 -16 -13 3 -4 -3 -14 -12 -21 -14 -12 -16 -12 -11 2 5 11 1
16 -10 15 -10 -1 -16 6 -16 16 1 10 -2 16 -6 13 -5 -3 -11 -1 -14 4 -4 5 3 13
15 16 11 4 18 9 16 12 -3 2 2 13 11 22 12 13 21 15 30 8 7 -6 12 -6 11 -1 -5
27 4 45 32 65 26 18 33 19 41 8 8 -11 9 -10 4 4 -3 10 1 28 9 40 10 15 15 17
15 7 0 -8 6 -4 13 10 8 14 21 24 31 23 13 -1 15 2 8 9 -18 18 28 49 53 36 11
-6 17 -7 12 -3 -4 5 1 18 10 29 18 21 18 21 -3 4 -27 -23 -33 -23 -27 2 3 11
10 17 17 13 6 -3 -5 10 -25 29 -20 19 -35 43 -33 52 2 15 0 15 -14 4 -14 -11
-15 -10 -9 6 6 16 5 17 -8 6 -8 -7 -15 -9 -15 -5 0 4 -7 2 -15 -5 -13 -10 -18
-11 -28 -1 -9 10 -8 11 8 6 11 -3 4 3 -15 13 -46 27 -67 14 -62 -39 7 -71 -4
-77 -46 -28 -20 24 -36 47 -35 51 2 4 -4 5 -12 2 -8 -4 -15 -2 -15 3 0 5 6 10
13 11 6 0 25 3 40 7 20 4 26 2 22 -6 -6 -8 -2 -8 13 0 32 17 36 30 15 53 -12
15 -13 19 -3 14 8 -4 6 0 -4 8 -19 15 -11 22 18 17 5 -1 4 4 -3 12 -9 12 -5
21 25 46 22 19 42 30 51 26 22 -8 70 24 52 35 -10 7 -10 11 0 24 11 12 17 14
27 5 8 -6 14 -7 14 -2z m-50 -38 c0 -10 -31 -20 -42 -13 -5 3 -2 14 8 25 13
15 19 17 26 7 4 -7 8 -16 8 -19z"/>
<path d="M1132 1155 c-7 -8 -9 -15 -4 -15 5 0 15 7 22 15 16 19 -1 19 -18 0z"/>
<path d="M1159 1143 c-13 -16 -12 -17 4 -4 9 7 17 15 17 17 0 8 -8 3 -21 -13z"/>
<path d="M1490 1151 c0 -6 4 -13 10 -16 6 -3 7 1 4 9 -7 18 -14 21 -14 7z"/>
<path d="M1686 1113 c-6 -14 -5 -15 5 -6 7 7 10 15 7 18 -3 3 -9 -2 -12 -12z"/>
<path d="M1086 661 c-3 -5 2 -15 12 -22 15 -12 16 -12 5 2 -7 9 -10 19 -6 22
3 4 4 7 0 7 -3 0 -8 -4 -11 -9z"/>
<path d="M1073 623 c4 -3 1 -13 -6 -22 -11 -14 -10 -14 5 -2 16 12 16 31 1 31
-4 0 -3 -3 0 -7z"/>
<path d="M1703 1256 c-3 -6 -3 -8 2 -4 4 4 13 3 20 -2 8 -7 12 -5 12 3 0 16
-25 18 -34 3z"/>
<path d="M1383 1225 c0 -7 6 -11 14 -8 7 3 13 6 13 8 0 2 -6 5 -13 8 -8 3 -14
-1 -14 -8z"/>
<path d="M1731 977 c-13 -21 -12 -21 5 -5 10 10 16 20 13 22 -3 3 -11 -5 -18
-17z"/>
<path d="M1233 915 c0 -8 4 -12 9 -9 5 3 6 10 3 15 -9 13 -12 11 -12 -6z"/>
<path d="M1490 825 l-44 -45 124 -125 125 -125 45 45 45 45 -125 125 -125 125
-45 -45z m89 -35 c20 -20 44 -47 54 -60 10 -14 15 -18 11 -10 -3 8 5 2 20 -14
14 -16 23 -32 20 -37 -3 -5 2 -6 10 -3 9 4 16 1 16 -6 0 -6 10 -21 23 -32 12
-11 16 -17 10 -13 -8 4 -13 0 -13 -9 0 -9 -11 -18 -24 -22 -20 -5 -39 10 -125
97 -95 96 -115 119 -91 104 6 -3 10 -1 10 5 0 14 22 39 34 37 4 -1 24 -18 45
-37z"/>
<path d="M1667 619 c7 -7 15 -10 18 -7 3 3 -2 9 -12 12 -14 6 -15 5 -6 -5z"/>
<path d="M1813 615 c0 -8 4 -12 9 -9 5 3 6 10 3 15 -9 13 -12 11 -12 -6z"/>
<path d="M1736 532 c-3 -5 1 -9 9 -9 8 0 12 4 9 9 -3 4 -7 8 -9 8 -2 0 -6 -4
-9 -8z"/>
<path d="M1730 500 c-9 -6 -10 -10 -3 -10 6 0 15 5 18 10 8 12 4 12 -15 0z"/>
</g>
</svg>
